<?xml version="1.0" encoding="UTF-8"?>
<svg width="112px" height="112px" viewBox="0 0 112 112" version="1.1" xmlns="http://www.w3.org/2000/svg" xmlns:xlink="http://www.w3.org/1999/xlink">
    <title> compass</title>
    <defs>
        <path d="M37.4993759,75 C58.2105946,75 75,58.2105946 75,37.4993759 C75,16.7894054 58.2105946,0 37.4993759,0 C16.7894054,0 0,16.7894054 0,37.4993759 C0,58.2105946 16.7894054,75 37.4993759,75 Z" id="path-1"></path>
    </defs>
    <g id="项目-航线库" stroke="none" stroke-width="1" fill="none" fill-rule="evenodd">
        <g id="精准复拍" transform="translate(-6340.000000, -2440.000000)">
            <g id="编组-54备份-7" transform="translate(6286.000000, 2398.000000)">
                <g id="编组-62" transform="translate(25.327586, 43.000000)">
                    <g id="编组-67" transform="translate(0.000000, 0.000000)">
                        <g id="-compass" transform="translate(29.672414, 0.000000)">
                            <g id="编组-3">
                                <path d="M55.0007256,110 C85.375127,110 110,85.3765781 110,55.0007256 C110,24.624873 85.375127,0 55.0007256,0 C24.624873,0 0,24.624873 0,55.0007256 C0,85.3765781 24.624873,110 55.0007256,110 Z" id="路径" stroke="#C1C1C1" fill-rule="nonzero"></path>
                                <path d="M55,109.710526 C85.2152632,109.710526 109.710526,85.2152632 109.710526,55 C109.710526,24.7847368 85.2152632,0.289473684 55,0.289473684 C24.7847368,0.289473684 0.289473684,24.7847368 0.289473684,55 C0.289473684,85.2152632 24.7847368,109.710526 55,109.710526 Z M110,55 C110,85.3759211 85.3759211,110 55,110 C24.6240789,110 0,85.3759211 0,55 C0,24.6240789 24.6240789,0 55,0 C85.3759211,0 110,24.6240789 110,55 Z" id="形状" fill-opacity="0.86" fill="#000000"></path>
                                <path d="M82.0267105,102.596711 C74.0531579,107.134211 64.8290789,109.725 55,109.725 C45.1680263,109.725 35.9410526,107.132763 27.9675,102.593816 L29.5856579,99.7888158 L28.93,99.4096053 L27.3103947,102.213158 C19.2572368,97.4802632 12.5211842,90.7456579 7.78828947,82.6925 L10.5947368,81.0714474 L10.2155263,80.4157895 L7.40907895,82.0353947 C2.86868421,74.0603947 0.275,64.8334211 0.275,55 C0.275,45.1738158 2.86434211,35.9540789 7.39894737,27.9819737 L10.1996053,29.6001316 L10.5788158,28.9430263 L7.77815789,27.3263158 C12.5052632,19.2775 19.2326316,12.5428947 27.2756579,7.80710526 L28.9198684,10.6526316 L29.5755263,10.2748684 L27.9327632,7.42789474 L27.3509211,7.76368421 C35.4648684,3.00328947 44.9132895,0.275 55,0.275 C64.8290789,0.275 74.0531579,2.86723684 82.0252632,7.40328947 L80.4085526,10.2039474 L81.0656579,10.5831579 L82.6823684,7.7825 C90.7398684,12.5168421 97.4773684,19.2543421 102.213158,27.3103947 L99.4023684,28.9328947 L99.7815789,29.59 L102.592368,27.9675 C107.132763,35.9410526 109.725,45.1680263 109.725,55 C109.725,64.8334211 107.131316,74.0618421 102.590921,82.0368421 L99.7830263,80.4157895 L99.4038158,81.0728947 L102.210263,82.6939474 C97.4759211,90.7485526 90.7384211,97.4846053 82.6823684,102.2175 L81.0569737,99.4023684 L80.3998684,99.7815789 L82.0267105,102.596711 Z M55,110 C85.3759211,110 110,85.3759211 110,55 C110,24.6240789 85.3759211,0 55,0 C24.6240789,0 0,24.6240789 0,55 C0,85.3759211 24.6240789,110 55,110 Z" id="形状" fill-opacity="0.75" fill="#FFFFFF"></path>
                                <polygon id="路径" fill="#FFFFFF" fill-rule="nonzero" points="59 14 56.6893869 14 53.3106131 6.78633594 53.3106131 14 51 14 51 3 53.3106131 3 56.6968565 10.2232376 56.6968565 3 59 3"></polygon>
                                <polygon id="路径" fill="#FFFFFF" fill-rule="nonzero" points="10.9129768 53.2592593 4 52.2116402 4 50 15 51.9667108 15 54.2074515 8.51863218 55.5 15 56.7755732 15 59.0260141 4 61 4 58.7738095 10.9057431 57.7334656 4 56.433642 4 54.5590829"></polygon>
                                <polygon id="路径" fill="#FFFFFF" fill-rule="nonzero" points="100.759165 58.1957672 100.759165 53.8134039 97.842617 53.8134039 97.842617 59 96 59 96 51 107 51 107 58.9830688 105.148471 58.9830688 105.148471 53.8134039 102.550537 53.8134039 102.550537 58.1957672"></polygon>
                                <path d="M56.5129534,104.043871 C56.5129534,103.859568 56.4936097,103.69224 56.4549223,103.544312 C56.4134715,103.39881 56.3305699,103.260582 56.2034542,103.132055 C56.0791019,103.001102 55.8994819,102.872575 55.6673575,102.751323 C55.4379965,102.627646 55.1284974,102.499118 54.7443869,102.360891 C54.2856649,102.208113 53.8490501,102.035935 53.4290155,101.839506 C53.0145078,101.643078 52.6497409,101.412698 52.3319516,101.148369 C52.0196891,100.879189 51.7682211,100.568783 51.5775475,100.222002 C51.3924007,99.8679453 51.301209,99.4581129 51.301209,98.9925044 C51.301209,98.5462963 51.3951641,98.1413139 51.5858377,97.7727072 C51.7765112,97.3992504 52.0417962,97.0839947 52.3816926,96.824515 C52.7271157,96.5650353 53.1360967,96.3637566 53.6058722,96.220679 C54.0784111,96.0751764 54.6006908,96 55.1727116,96 C55.7585492,96 56.2863558,96.0848765 56.7561313,96.2497795 C57.2314335,96.4122575 57.6321244,96.6402116 57.9609672,96.933642 C58.2981002,97.2246473 58.555095,97.5714286 58.7319516,97.978836 C58.9115717,98.3813933 59,98.8251764 59,99.3101852 L56.546114,99.3101852 C56.546114,99.0846561 56.5184801,98.8785273 56.4632124,98.6917989 C56.4107081,98.5002205 56.3278066,98.3377425 56.2117444,98.2067901 C56.0984456,98.0685626 55.9547496,97.9642857 55.7751295,97.8915344 C55.5955095,97.8115079 55.3799655,97.7727072 55.1284974,97.7727072 C54.8963731,97.7727072 54.6918826,97.8042328 54.5177893,97.867284 C54.3492228,97.9327601 54.2110535,98.0200617 54.1005181,98.1340388 C53.9872193,98.2407407 53.9043178,98.3716931 53.8490501,98.5220459 C53.791019,98.6748236 53.7633851,98.8373016 53.7633851,99.0070547 C53.7633851,99.1840829 53.8048359,99.3441358 53.8905009,99.4847884 C53.9789292,99.627866 54.1032815,99.7612434 54.2580311,99.8824956 C54.4210708,100.006173 54.6117444,100.12015 54.8355786,100.229277 C55.0649396,100.335979 55.3164076,100.442681 55.5899827,100.544533 C56.1592401,100.726411 56.6566494,100.92769 57.0822107,101.148369 C57.507772,101.369048 57.8614853,101.618827 58.146114,101.897707 C58.4307427,102.176587 58.6435233,102.494268 58.7816926,102.845899 C58.9226252,103.195106 58.9917098,103.587963 58.9917098,104.029321 C58.9917098,104.49978 58.9032815,104.919312 58.7236615,105.287919 C58.5523316,105.654101 58.3008636,105.966931 57.9692573,106.221561 C57.6459413,106.47134 57.2535406,106.665344 56.7892919,106.801146 C56.3250432,106.934524 55.8027634,107 55.2224525,107 C54.6974093,107 54.1806563,106.932099 53.6721934,106.793871 C53.1692573,106.653219 52.7188256,106.43739 52.3236615,106.14881 C51.925734,105.857804 51.6051813,105.494048 51.3592401,105.05269 C51.1188256,104.611332 51,104.087522 51,103.478836 L53.4704663,103.478836 C53.4704663,103.801367 53.5063903,104.077822 53.5810017,104.303351 C53.6528497,104.52888 53.7606218,104.710758 53.9070812,104.853836 C54.056304,104.992063 54.2414508,105.09149 54.4597582,105.154541 C54.6780656,105.215168 54.9322971,105.244268 55.2224525,105.244268 C55.4573402,105.244268 55.6535406,105.215168 55.8165803,105.154541 C55.9851468,105.09149 56.1177893,105.009039 56.2200345,104.904762 C56.3250432,104.79806 56.3996546,104.669533 56.4466321,104.52403 C56.4908463,104.376102 56.5129534,104.216049 56.5129534,104.043871 Z" id="路径" fill="#FFFFFF" fill-rule="nonzero"></path>
                                <g id="编组" opacity="0.8" transform="translate(28.198741, 11.266691)" fill="#FFFFFF" fill-rule="nonzero">
                                    <path d="M1.67519869,4.63337824 L2.17433484,4.3671296 C2.36448195,4.26683045 2.4654976,4.13370614 2.47540109,3.96593302 C2.48926599,3.79633629 2.43182571,3.60850334 2.30506098,3.40425782 C2.24762071,3.3149004 2.18621904,3.24013194 2.11887527,3.17812884 C2.0515315,3.11247849 1.97824564,3.06324072 1.90099838,3.03406279 C1.82573182,2.999414 1.74650386,2.98482503 1.6633145,2.98664865 C1.58012514,2.98847227 1.49693578,3.01217934 1.41572712,3.05594624 C1.35036406,3.09059504 1.29490448,3.13618556 1.24934841,3.1927178 C1.20577303,3.24925005 1.17804324,3.31125315 1.16219765,3.38055074 C1.14833276,3.45167196 1.15031346,3.52644041 1.16417835,3.60850334 C1.18002394,3.69056628 1.21369582,3.77262922 1.2671747,3.8583394 L0.237211214,4.40542564 C0.110446478,4.20482735 0.0351799153,4.00240544 0.0114115272,3.79633629 C-0.0143375599,3.59026714 0.00348873121,3.39513971 0.0648904004,3.20913039 C0.12629207,3.02312107 0.22532702,2.84987709 0.36595665,2.69122208 C0.508566978,2.53074345 0.682868491,2.39397189 0.892822586,2.28273102 C1.12258367,2.16054843 1.35234476,2.07848549 1.58210584,2.03654221 C1.80988623,1.99277531 2.02974382,1.99459893 2.23969791,2.04018945 C2.4516327,2.08213273 2.64970261,2.17149015 2.83390761,2.30643809 C3.01811262,2.43591517 3.18251064,2.61645363 3.32710167,2.84440623 C3.39444543,2.95199986 3.44396291,3.06506435 3.47565409,3.1835997 C3.51130667,3.30031143 3.52715227,3.41884678 3.52517157,3.542853 C3.52319087,3.66321197 3.50536458,3.78357094 3.46971199,3.90757716 C3.43405941,4.02793613 3.37859984,4.14282424 3.30333328,4.25588873 C3.61430302,4.22123993 3.89358158,4.26865408 4.13720756,4.40177839 C4.38479494,4.53307909 4.59276833,4.73185376 4.76112775,4.99992602 C4.90373808,5.22787862 4.98890813,5.4540076 5.01663792,5.67831296 C5.0463484,5.90079469 5.02654141,6.11233471 4.95721695,6.312933 C4.88789248,6.50988404 4.77301194,6.69406974 4.61455602,6.8654901 C4.4541194,7.03326321 4.2600109,7.17915288 4.02826911,7.30133547 C3.83416061,7.40528186 3.62816791,7.47822669 3.40831032,7.52016997 C3.19241413,7.56028963 2.97453724,7.56211325 2.75864105,7.52199359 C2.54472556,7.48005031 2.34071356,7.39616375 2.14264366,7.26668668 C1.94457376,7.1372096 1.77027225,6.95120028 1.61973912,6.71048233 L2.64970261,6.16339609 C2.70516218,6.25275351 2.77052524,6.32752196 2.84579181,6.38952507 C2.91907767,6.44970456 2.99434423,6.49347146 3.07555289,6.52629663 C3.15676155,6.55547456 3.23797021,6.56823991 3.31917887,6.56641629 C3.40434893,6.56276905 3.48753829,6.5408856 3.56478555,6.49894232 C3.653917,6.45152818 3.72522217,6.39317231 3.77473964,6.32387472 C3.82623782,6.25457713 3.857929,6.17980868 3.86981319,6.09592212 C3.88367809,6.01021194 3.87971669,5.92085452 3.8559483,5.82602624 C3.83019921,5.72755072 3.78662384,5.62907519 3.72324147,5.52877605 C3.56280485,5.27164552 3.39246473,5.11663775 3.21222112,5.06375275 C3.03395821,5.00539688 2.84777251,5.02910395 2.653664,5.13122672 L2.15452785,5.39747535 L1.67519869,4.63337824 Z" id="路径"></path>
                                    <path d="M5.4484303,2.62739535 L5.94756645,2.36297034 C6.13573286,2.26267119 6.23674851,2.12772325 6.2486327,1.96177376 C6.2605169,1.7903534 6.20307662,1.60252046 6.07631189,1.40009855 C6.02085232,1.31074113 5.95746995,1.23414906 5.89012618,1.17214595 C5.82278242,1.1064956 5.75147725,1.05908146 5.67422999,1.02807991 C5.59698273,0.995254734 5.51775477,0.978842147 5.43456541,0.980665768 C5.35137605,0.982489388 5.27016739,1.00619646 5.18697803,1.04996336 C5.12161497,1.08461215 5.06615539,1.13020267 5.02059932,1.18855854 C4.97702394,1.24326716 4.94929415,1.30709389 4.93542926,1.37639148 C4.92156437,1.44568907 4.92156437,1.52228115 4.93740996,1.60434408 C4.95127485,1.6845834 4.98692743,1.76846995 5.04040631,1.85235651 L4.00846212,2.40126637 C3.88367809,2.19884446 3.80841152,1.99642256 3.78266244,1.79217703 C3.75691335,1.58610787 3.77473964,1.38915683 3.83812201,1.20497113 C3.89754298,1.01713818 3.99855863,0.845717828 4.13918826,0.687062818 C4.27981789,0.524760567 4.4561001,0.389812627 4.6640735,0.278571758 C4.89383458,0.154565544 5.12557636,0.0725026077 5.35335675,0.0323829501 C5.58311784,-0.0113839492 5.80099473,-0.0113839492 6.01094882,0.0360301917 C6.22288361,0.0779734701 6.42095352,0.167330889 6.60515852,0.300455208 C6.79134423,0.431755906 6.95574225,0.610470745 7.09835258,0.838423345 C7.16569634,0.946016972 7.21521382,1.05908146 7.2488857,1.17944044 C7.28255758,1.29432855 7.29840318,1.41468752 7.29840318,1.53687011 C7.29642248,1.65722909 7.27661549,1.77941168 7.2409629,1.90341789 C7.20531032,2.02195325 7.15183145,2.13866498 7.07458419,2.24990585 C7.38753463,2.21525705 7.66483249,2.26449481 7.91043917,2.39579551 C8.15604585,2.52709621 8.36401924,2.7276945 8.53237866,2.99576676 C8.67498899,3.22371936 8.76015904,3.44802471 8.78788883,3.67233007 C8.81759931,3.89481181 8.79779232,4.10635182 8.72846786,4.30695011 C8.65914339,4.50572478 8.54624355,4.68991048 8.38778763,4.86133084 C8.22735101,5.02910395 8.03126181,5.17499361 7.80150072,5.29717621 C7.60739222,5.39929897 7.39941882,5.47224381 7.18154193,5.51418708 C6.96366504,5.55613036 6.74776885,5.55613036 6.53187266,5.51601071 C6.31795717,5.47406743 6.11196447,5.39018087 5.91587527,5.26252741 C5.71780537,5.13305034 5.54350385,4.94704101 5.39099003,4.70449945 L6.42095352,4.15741321 C6.47839379,4.24677063 6.54375685,4.32153908 6.61704272,4.38354219 C6.69032858,4.44372167 6.76757584,4.48931219 6.8487845,4.52031375 C6.92801246,4.54949168 7.00922112,4.56225703 7.09241048,4.5604334 C7.17758054,4.55678616 7.2587892,4.53490271 7.33603646,4.49295943 C7.42714861,4.44554529 7.49647308,4.38718943 7.54797125,4.31971546 C7.59748873,4.25041787 7.62917991,4.17382579 7.6410641,4.08993924 C7.6569097,4.00422906 7.6509676,3.91487164 7.62719921,3.82004336 C7.60343082,3.72339146 7.55787475,3.62491593 7.49647308,3.52461679 C7.33405576,3.26748625 7.16371564,3.11247849 6.98545273,3.05776986 C6.80718982,3.00123762 6.62100412,3.02312107 6.42689561,3.12706745 L5.92775946,3.39149247 L5.4484303,2.62739535 Z" id="路径"></path>
                                </g>
                                <g id="编组" opacity="0.8" transform="translate(11.000000, 28.000000)" fill="#FFFFFF" fill-rule="nonzero">
                                    <path d="M2.43407166,6.68575382 L2.7502737,6.17281552 C2.8723931,5.97741045 2.88765803,5.79625367 2.79824918,5.62934517 C2.70884033,5.45836574 2.54092614,5.30570553 2.29886804,5.17543549 C2.19201356,5.11844234 2.08733978,5.07569749 1.98484671,5.05127185 C1.88235364,5.02277528 1.78422197,5.01259793 1.69263242,5.02277528 C1.59886216,5.02888169 1.51381472,5.05534279 1.43749009,5.10012312 C1.35898476,5.14490345 1.29356365,5.21003847 1.24122676,5.29349272 C1.19979339,5.36269868 1.17580565,5.43394011 1.16490213,5.51332342 C1.15836002,5.58863579 1.16926354,5.66394816 1.19761269,5.73926052 C1.22596183,5.81457289 1.27175661,5.88784979 1.33499702,5.95705575 C1.39823742,6.02829719 1.47892346,6.09139674 1.58141653,6.14635441 L0.927205431,7.20479852 C0.685147324,7.07452848 0.493245401,6.91779733 0.347138256,6.73256961 C0.198850407,6.54734189 0.0985380379,6.34786589 0.0462011499,6.13617707 C-0.00613573812,5.92448824 -0.0148585528,5.70669301 0.0243941132,5.48075591 C0.0636467792,5.25278333 0.148694222,5.03091716 0.281717146,4.81719287 C0.427824291,4.57904294 0.597919177,4.38160241 0.792001804,4.22487126 C0.983903726,4.06406917 1.19325128,3.95211835 1.42222516,3.8890188 C1.64901834,3.82184831 1.88889575,3.80556456 2.14621878,3.84016754 C2.40136111,3.87273505 2.66522625,3.96026023 2.93781421,4.1088495 C3.06647573,4.17805546 3.18205302,4.26150971 3.28454609,4.35921224 C3.38703917,4.45487931 3.47426731,4.56072372 3.54623053,4.68081642 C3.61601305,4.79683817 3.67053064,4.92507275 3.70978331,5.06348467 C3.74903598,5.19579018 3.7643009,5.33623758 3.75993949,5.48482684 C4.03688886,5.28942178 4.33128385,5.19375471 4.64312448,5.19579018 C4.95714581,5.19579018 5.27334784,5.28331537 5.59391128,5.4542948 C5.86649924,5.60288407 6.0823889,5.77589897 6.24376097,5.97944592 C6.40513304,6.17892192 6.51198752,6.39468168 6.56650511,6.62265426 C6.618842,6.85062684 6.618842,7.0867413 6.57086652,7.3330331 C6.51852963,7.57728943 6.42039797,7.81951029 6.27429082,8.05562475 C6.14999071,8.25510075 5.99734146,8.4321866 5.81198164,8.5848468 C5.62880254,8.73750701 5.42381639,8.84945783 5.1926618,8.92069926 C4.96586862,8.98990522 4.71944911,9.01433086 4.45558396,8.99194069 C4.18735741,8.96751506 3.91040805,8.8779544 3.62255516,8.72325873 L4.27676626,7.66277915 C4.38362074,7.72180776 4.49047522,7.76048168 4.59951041,7.78287184 C4.70418418,7.80322654 4.80449655,7.80729748 4.90044751,7.79508466 C4.99421777,7.78287184 5.07926521,7.75437527 5.15777054,7.70959494 C5.23627588,7.66277915 5.29951628,7.59764413 5.34967247,7.51826082 C5.40637076,7.42666469 5.43908132,7.3330331 5.44562343,7.24143697 C5.45434624,7.14780538 5.43908132,7.05824472 5.39982865,6.97071954 C5.36275669,6.88115888 5.30387769,6.79770463 5.22537236,6.71832133 C5.14250562,6.63690255 5.04219325,6.56362565 4.92225455,6.49849063 C4.61477533,6.3336176 4.359633,6.27051805 4.15682756,6.31122744 C3.95184142,6.34786589 3.78828864,6.46592312 3.66398853,6.66539912 L3.3477865,7.17833742 L2.43407166,6.68575382 Z" id="路径"></path>
                                    <path d="M7.22943903,1.13706412 C7.66776046,1.37317857 8.01885375,1.61539944 8.2870803,1.86169124 C8.55312615,2.10798304 8.74284737,2.35631031 8.86060537,2.60463758 C8.97400196,2.85296486 9.01761603,3.09925666 8.99362829,3.34554846 C8.97182126,3.58980479 8.88895452,3.82795472 8.74502807,4.05999824 C8.60110163,4.29204175 8.42228393,4.47930494 8.20421357,4.6217878 C7.9883239,4.76427066 7.73754298,4.85179585 7.4496901,4.88436336 C7.15965651,4.91285993 6.83473166,4.88436336 6.47273485,4.79683817 C6.10855734,4.70320658 5.70948857,4.53833355 5.27116713,4.3022191 L4.25277852,3.75467782 C3.81663779,3.51856336 3.4677252,3.27837797 3.20167935,3.03208617 C2.9334528,2.78579436 2.74373159,2.53746709 2.63033499,2.29117529 C2.512577,2.04081255 2.46678222,1.79655622 2.49295066,1.55229988 C2.5169384,1.30600808 2.59980514,1.06785816 2.74373159,0.83581464 C2.88765803,0.603771123 3.06647573,0.416507935 3.28454609,0.274025074 C3.49825505,0.129506743 3.74903598,0.0419815572 4.03906956,0.0114495156 C4.32474174,-0.019082526 4.65184729,0.0114495156 5.0138441,0.10304564 C5.37584091,0.192606296 5.77490968,0.353408382 6.21105041,0.587487368 L7.22943903,1.13706412 Z M5.38892513,1.56247723 C5.1316021,1.42406531 4.90917033,1.32025637 4.71944911,1.25308588 C4.52754718,1.18184444 4.36617511,1.14113506 4.23097149,1.12688677 C4.09358715,1.11467395 3.98019056,1.12688677 3.89296242,1.16556069 C3.80355357,1.20423461 3.73595175,1.26326322 3.68579557,1.34264653 C3.63563938,1.42202984 3.61601305,1.50751956 3.62473587,1.59911568 C3.63127798,1.69071181 3.67707275,1.78637887 3.75775879,1.89018781 C3.83844483,1.99399675 3.95838353,2.10594757 4.11757489,2.2240048 C4.27676626,2.3440975 4.48393311,2.47233207 4.74125614,2.61074399 L6.08020819,3.33130018 C6.33971193,3.47174757 6.56650511,3.57759198 6.76058774,3.64883341 C6.95248966,3.71803937 7.11604244,3.76078423 7.25342677,3.77503251 C7.3929918,3.78724533 7.50638839,3.77299704 7.59361654,3.73432312 C7.68302539,3.69564921 7.75280791,3.63458512 7.80296409,3.55316634 C7.85312028,3.47174757 7.87274661,3.38829332 7.86402379,3.30076813 C7.85530098,3.20917201 7.8095062,3.11146948 7.72882017,3.00766053 C7.64595343,2.90385159 7.52383402,2.79393624 7.36246195,2.67587901 C7.19890918,2.55375085 6.98738092,2.4234808 6.72787718,2.28506888 L5.38892513,1.56247723 Z" id="形状"></path>
                                </g>
                                <g id="编组" opacity="0.8" transform="translate(11.000000, 74.000000)">
                                    <path d="M7.05350134,3.45890905 L8.74530056,6.43149738 L8.06300351,6.83110976 L5.57178269,6.46919666 C5.38587069,6.44846206 5.22040901,6.43903724 5.07539765,6.43715227 C4.93038628,6.43526731 4.80024788,6.44280716 4.68684156,6.45600191 C4.57343524,6.47108163 4.47304276,6.49181623 4.38566412,6.52197565 C4.29828548,6.55025012 4.22020244,6.58606443 4.14583764,6.62941861 C3.92460235,6.75948113 3.77401363,6.89896847 3.69407147,7.05165056 C3.61227019,7.20056272 3.61227019,7.34758991 3.69593059,7.49461711 C3.74612683,7.58132546 3.81119603,7.64541424 3.89113819,7.68499848 C3.96922124,7.72458273 4.058459,7.74531733 4.15699236,7.74531733 C4.25552572,7.7472023 4.36149556,7.72835265 4.476761,7.68876841 C4.59016732,7.64918416 4.70729188,7.59452021 4.82627556,7.52477654 L5.38587069,8.50872778 C5.16091717,8.64067526 4.92852716,8.73115354 4.6905598,8.77827764 C4.45259244,8.82163181 4.22206156,8.82351677 3.99896716,8.7801626 C3.77587275,8.73492346 3.56951043,8.64444519 3.37616195,8.50872778 C3.18095435,8.36924044 3.01735179,8.18262899 2.88349515,7.94700849 C2.75149762,7.71515791 2.66783722,7.49273215 2.63437306,7.27973121 C2.59719066,7.06296034 2.60462714,6.86126919 2.6566825,6.66900285 C2.70873786,6.47862148 2.8054121,6.30143486 2.94670523,6.13932795 C3.08613923,5.97533608 3.26647387,5.82830888 3.48585003,5.70013132 C3.65131171,5.60211319 3.82606899,5.53048456 4.00826276,5.48147549 C4.1885974,5.43435139 4.37822764,5.40796189 4.58087172,5.40042204 C4.78165668,5.39099722 4.99545548,5.39665211 5.22226813,5.42115664 C5.44722165,5.44754614 5.68704813,5.48336046 5.94546581,5.53048456 L7.2263995,5.6435824 L6.2503615,3.92826511 L7.05350134,3.45890905 Z" id="路径" fill="#FFFFFF" fill-rule="nonzero"></path>
                                    <path d="M3.35013427,1.35717412 L3.10473043,0.927402319 L3.90787027,0.458046267 L4.15327412,0.887818073 L5.22970461,0.258240077 L5.78744061,1.23842139 L4.71101012,1.86799939 L5.66287957,3.53807754 L5.0623838,3.94899971 L0.814294567,4.15446079 L0.252840322,3.17050955 L3.35013427,1.35717412 Z M4.34290436,3.10076588 L3.90787027,2.33735544 L2.24395786,3.31188186 L2.2941541,3.31188186 L4.34290436,3.10076588 Z" id="形状" fill="#FFFFFF" fill-rule="nonzero"></path>
                                    <path d="M7.21338566,3.36466085 L7.12042966,3.20066898 L6.96054534,3.29491718 L6.15740549,3.7661582 L5.99566205,3.8604064 L6.08861805,4.02251331 L6.88618054,5.42492657 L5.96963437,5.34387312 C5.71121669,5.29674901 5.46953109,5.2609347 5.24271845,5.2345452 L5.24271845,5.2345452 L5.24271845,5.2345452 C5.00846932,5.21004067 4.78537492,5.20061585 4.57343524,5.21192563 C4.35963644,5.21946549 4.15513324,5.24773995 3.96178476,5.29863398 L3.96178476,5.29863398 C3.76285891,5.35141297 3.57322867,5.43058146 3.39289403,5.53613945 C3.15864491,5.67374183 2.96157819,5.83207881 2.80727122,6.01492032 C2.64924602,6.19776184 2.53769882,6.39945299 2.47820698,6.61999379 C2.41685602,6.83864962 2.40941954,7.0705002 2.45032018,7.30989063 C2.4893617,7.55116603 2.5823177,7.7943264 2.7217517,8.04125669 C2.86676307,8.2976118 3.04895683,8.50684281 3.26833299,8.66329483 L3.26833299,8.66329483 L3.26833299,8.66329483 C3.48213179,8.81409195 3.71452179,8.91588001 3.96364388,8.96488908 L3.96364388,8.96488908 L3.965503,8.96488908 C4.21090684,9.01201318 4.46374716,9.01201318 4.72402396,8.96300412 L4.72402396,8.96300412 L4.72588308,8.96300412 C4.98615988,8.91211009 5.23714109,8.81409195 5.47882669,8.67271965 L5.64057013,8.57847145 L5.54761413,8.41447957 L4.98615988,7.43052833 L4.89320388,7.26842142 L4.73331956,7.36266963 C4.62363148,7.4267584 4.51766164,7.47576747 4.41726916,7.50969682 C4.31687668,7.54362618 4.23321628,7.55870589 4.1607106,7.55682092 L4.1607106,7.55682092 L4.15699236,7.55682092 C4.08262756,7.55682092 4.02313572,7.54174121 3.97665772,7.51723668 L3.97665772,7.51723668 L3.97108036,7.51535172 C3.92832059,7.49461711 3.89113819,7.45880279 3.85581491,7.40036891 C3.80747779,7.31366056 3.80561867,7.23637703 3.85581491,7.14212883 L3.85581491,7.14212883 L3.85767403,7.14024387 C3.91530675,7.03091595 4.03429044,6.91216322 4.23879364,6.79341048 C4.3001446,6.75759616 4.36893204,6.72555177 4.44515596,6.70104724 C4.51766164,6.67654271 4.60504028,6.6558081 4.709151,6.64449832 C4.81326172,6.63130357 4.93410452,6.62376371 5.07353853,6.62564868 C5.20925429,6.62753364 5.36913861,6.63695846 5.54947325,6.6558081 L8.03511671,7.0177212 L8.10018591,7.02714602 L8.15595951,6.99510163 L8.83825656,6.59548925 L9,6.50124105 L8.907044,6.33724918 L7.21338566,3.36466085 Z M3.01177443,0.765295409 L2.85189011,0.859543612 L2.94484611,1.02165052 L3.09543483,1.28931542 L0.159884321,3.00651768 L0,3.10076588 L0.0929560008,3.26475776 L0.652551126,4.248709 L0.710183846,4.34861209 L0.823590167,4.3429572 L5.07167941,4.13749612 L5.12373477,4.13561115 L5.16649453,4.10545173 L5.76699029,3.69452956 L5.91014253,3.59651143 L5.82276389,3.44382934 L4.96570956,1.93774306 L5.88039661,1.4005283 L6.04214005,1.3062801 L5.94918405,1.14417319 L5.39144805,0.163991873 L5.29849205,0 L5.13674861,0.0942482031 L4.22206156,0.629577997 L4.06961372,0.363798064 L3.97665772,0.199806191 L3.81491427,0.294054394 L3.01177443,0.765295409 Z M3.08056187,3.04044703 L3.84094195,2.59559551 L4.03800868,2.9424289 L3.08056187,3.04044703 Z" id="形状" stroke-opacity="0.6" stroke="#000000" stroke-width="0.2"></path>
                                </g>
                                <g id="编组" opacity="0.75" transform="translate(91.000000, 75.000000)">
                                    <polygon id="路径" fill="#FFFFFF" fill-rule="nonzero" points="2.99127712 1.22246233 3.59718184 0.254138603 7.71169761 2.44306963 7.90896891 1.28738825 8.780586 1.75299985 8.45045851 3.99016157 8.38604339 4.09218801"></polygon>
                                    <path d="M0.275777231,5.55580376 L2.10959517,2.63042729 L2.84835607,3.02369286 L3.86088123,5.35360589 C3.94341311,5.52612334 4.02393201,5.67452544 4.10042496,5.80066723 C4.17893089,5.92680902 4.25542384,6.03625557 4.32990382,6.12715186 C4.40438381,6.21804815 4.47886379,6.29410423 4.5513308,6.35346507 C4.62581078,6.41468094 4.70230374,6.46662167 4.78080966,6.50743225 C5.02035339,6.63542907 5.2317155,6.69664493 5.41690897,6.69107985 C5.59807649,6.68922483 5.73495862,6.61502378 5.82554238,6.47218675 C5.87989264,6.38500052 5.90203534,6.29781428 5.89599642,6.20877302 C5.89197048,6.12158678 5.86177589,6.03625557 5.80742563,5.94906934 C5.75508835,5.86373813 5.68060837,5.78211697 5.58197271,5.70235084 C5.48333706,5.62258471 5.3706106,5.54838366 5.24178036,5.47974768 L5.84969805,4.51142396 C6.09326773,4.6412758 6.30060389,4.79709801 6.47371953,4.98074561 C6.64280921,5.16439321 6.76962648,5.36288103 6.85014538,5.57620905 C6.92865131,5.7913921 6.95683292,6.01585028 6.9367032,6.2495836 C6.91254753,6.48517194 6.82800268,6.72076028 6.68306866,6.95263856 C6.54216059,7.17895177 6.38112279,7.36074435 6.19995527,7.49430624 C6.02080072,7.63343321 5.82956833,7.72618453 5.62424514,7.77627024 C5.42093491,7.82450092 5.20353389,7.82821098 4.97808097,7.78554537 C4.7486021,7.74658982 4.51711027,7.66311363 4.27957951,7.53697185 C4.10042496,7.44051048 3.93737419,7.32549885 3.79445314,7.19193696 C3.65354507,7.06023009 3.52471483,6.90811793 3.4099754,6.73745551 C3.29121002,6.56864812 3.18250951,6.37943544 3.08186088,6.17167249 C2.9852382,5.96576457 2.88660255,5.73945136 2.79199284,5.49458789 L2.2021919,4.3314864 L1.14538135,6.01956034 L0.275777231,5.55580376 Z" id="路径" fill="#FFFFFF" fill-rule="nonzero"></path>
                                    <path d="M2.81614851,1.12971102 L2.71549989,1.2910983 L2.89062849,1.38384962 L8.28539477,4.2535753 L8.46052337,4.34632661 L8.561172,4.18493933 L8.62357414,4.08291288 L8.64370387,4.05137743 L8.64974279,4.01613193 L8.98188325,1.77711519 L9,1.65468346 L8.88123462,1.59161256 L8.00961754,1.12785599 L7.75397003,0.992439069 L7.70968463,1.25956286 L7.5587117,2.14812045 L3.69783046,0.0927513149 L3.52471483,0 L3.4240662,0.161387288 L2.81614851,1.12971102 Z M0.100648624,5.46305245 L0,5.62443973 L0.175128607,5.71719105 L1.04473272,6.1790926 L1.21986133,6.27184391 L1.32050995,6.11231165 L2.18407515,4.73217208 L2.6047864,5.56507889 C2.70140908,5.81179739 2.80004473,6.0381106 2.89666741,6.24587354 L2.89868038,6.24772857 C3.00134198,6.46291162 3.11608141,6.65954441 3.23887274,6.83577191 C3.36166406,7.01756448 3.50055916,7.17895177 3.6515321,7.3217888 L3.6515321,7.32364382 C3.80854395,7.46833587 3.98367256,7.59262264 4.17893089,7.69835913 C4.43256542,7.83192103 4.68418698,7.92281732 4.93983449,7.96733795 C5.19346902,8.01371361 5.43905167,8.01185858 5.67456945,7.95435276 C5.9121002,7.89870197 6.12950123,7.79111045 6.32878551,7.63714327 C6.53008276,7.48688614 6.70722433,7.2865433 6.85819727,7.04538988 C7.01520913,6.7931063 7.10981883,6.53340262 7.13598747,6.26627883 L7.13598747,6.26627883 L7.13598747,6.26627883 C7.16014314,6.00657515 7.12793558,5.7561466 7.04137777,5.51684821 L7.0393648,5.51499318 C6.95079401,5.27940484 6.8118989,5.06051174 6.62670544,4.8601689 L6.62670544,4.8601689 L6.62469246,4.85831387 C6.43748602,4.65982606 6.2120331,4.49101867 5.95034668,4.35189169 L5.77521807,4.25914038 L5.67456945,4.41867264 L5.06866473,5.38699637 L4.9680161,5.54838366 L5.14113174,5.64113497 C5.25989711,5.70420586 5.36255871,5.77098681 5.44911653,5.84147781 C5.53366137,5.91011378 5.59405055,5.97689473 5.63229703,6.03996562 L5.63229703,6.03996562 L5.63229703,6.04182065 C5.67456945,6.10674657 5.6926862,6.16425239 5.69469917,6.21804815 L5.69469917,6.21804815 L5.69469917,6.22361323 C5.69872512,6.26998889 5.68664728,6.32192962 5.65041378,6.37943544 C5.59606352,6.46476665 5.52560948,6.5037222 5.41288302,6.50557723 L5.41288302,6.50557723 L5.41087005,6.50557723 C5.27801387,6.50928728 5.10288526,6.46476665 4.88145829,6.34789999 C4.81503019,6.31265449 4.75061507,6.26813386 4.68619996,6.21619312 C4.62379781,6.16425239 4.55938269,6.09932647 4.49094162,6.01585028 C4.42250056,5.9323741 4.35003355,5.83034765 4.27555357,5.70791592 C4.20308656,5.59104926 4.1265936,5.44821224 4.0460747,5.28125987 L3.03556251,2.95505689 L3.00939387,2.89569605 L2.9490047,2.8641606 L2.21024379,2.47089503 L2.03511519,2.37814371 L1.93446656,2.53767597 L0.100648624,5.46305245 Z" id="形状" stroke-opacity="0.6" stroke="#000000" stroke-width="0.2"></path>
                                </g>
                                <g id="编组" opacity="0.8" transform="translate(74.255717, 12.278654)" fill="#FFFFFF" fill-rule="nonzero">
                                    <path d="M2.90158917,3.11096675 L3.54463213,3.51499061 C3.78704912,3.66824104 4.01415556,3.69053202 4.22595146,3.57629078 C4.44029912,3.46204955 4.62912919,3.24749895 4.79499345,2.93821171 C4.86644267,2.80167951 4.91747782,2.66793368 4.95065067,2.53697422 C4.98637528,2.40601476 4.99658231,2.28062804 4.98382353,2.16360044 C4.97616825,2.04378647 4.94554716,1.93511798 4.88940849,1.83759498 C4.83326982,1.7372856 4.75161357,1.65369446 4.64443974,1.58682154 C4.56023173,1.53388048 4.46836845,1.50044403 4.37140166,1.48929854 C4.27698662,1.48093943 4.18257158,1.49208491 4.08815654,1.52830774 C3.9937415,1.56453057 3.90187822,1.62304437 3.8125667,1.70384915 C3.72580693,1.78465392 3.64670244,1.89053603 3.57780498,2.02149549 L2.25089093,1.18279768 C2.41165167,0.876296814 2.61068878,0.631096123 2.84289874,0.444409233 C3.0751087,0.254935972 3.32518096,0.126762884 3.58801201,0.0598899684 C3.85339482,-0.00976931878 4.12898466,-0.0181284332 4.40967802,0.0320262535 C4.69802665,0.0821809403 4.97616825,0.190849428 5.24410282,0.360818089 C5.54010672,0.547504978 5.78762723,0.764841954 5.98666434,1.01282902 C6.1882532,1.25802971 6.32604812,1.52552137 6.40515262,1.815304 C6.48936062,2.10787301 6.50977469,2.41437387 6.4663948,2.74316571 C6.42811844,3.06917117 6.31584109,3.40632212 6.13211453,3.75461856 C6.04535477,3.91901448 5.9407327,4.06669217 5.81569657,4.19765163 C5.69831571,4.32582471 5.56307254,4.43727957 5.41507059,4.5320162 C5.26706864,4.62118009 5.10885966,4.69083938 4.93534013,4.74099407 C4.76692411,4.79114875 4.59085283,4.81065335 4.40712626,4.80508061 C4.64954325,5.15894979 4.76947587,5.53510994 4.76692411,5.93356106 C4.76692411,6.33479856 4.65975029,6.73882242 4.44285087,7.14841903 C4.25912431,7.49671547 4.03967314,7.77256624 3.78704912,7.97875773 C3.5344251,8.18494922 3.26649053,8.32148143 2.98069366,8.39114071 C2.69489679,8.45801363 2.39889288,8.45801363 2.09013019,8.39671346 C1.7813675,8.32984054 1.48026008,8.20445382 1.18170441,8.01776693 C0.931632151,7.85894376 0.712180981,7.66111138 0.518247388,7.42705618 C0.329417312,7.19300097 0.189070633,6.93108205 0.0997591104,6.63572668 C0.0104475876,6.34315767 -0.0176217481,6.03108406 0.0104475876,5.69393311 C0.0410686811,5.35120942 0.153346024,4.99734024 0.347279616,4.62953921 L1.67419367,5.46545065 C1.60274445,5.60198285 1.55426105,5.73851506 1.52619172,5.87783363 C1.50067414,6.01157946 1.49557062,6.13975255 1.51088117,6.2623529 C1.52619172,6.38216687 1.56191633,6.49083536 1.618055,6.59114473 C1.67674543,6.69145411 1.75584992,6.77225888 1.85792023,6.83634542 C1.97274933,6.90879108 2.08757843,6.95058665 2.20495929,6.95894577 C2.31978839,6.97009125 2.43206573,6.95058665 2.54179132,6.90043197 C2.65406866,6.85306365 2.76124249,6.77783162 2.86076104,6.67752225 C2.96283135,6.57164013 3.05214288,6.44346704 3.13379913,6.29021661 C3.34304326,5.89733823 3.419596,5.57133277 3.3711126,5.31220022 C3.32518096,5.0502813 3.17717901,4.84130344 2.92710674,4.68248026 L2.28406378,4.2784564 L2.90158917,3.11096675 Z" id="路径"></path>
                                </g>
                                <g id="编组" opacity="0.8" transform="translate(28.000000, 93.000000)">
                                    <path d="M5.83309382,1.79501169 L8.74686923,3.44998701 L8.35516321,4.11925175 L6.03448984,5.03403481 C5.86265654,5.10859964 5.71484295,5.1813458 5.59104907,5.24863601 C5.46355984,5.31956352 5.35639499,5.38867238 5.26585917,5.45596259 C5.17347567,5.52325279 5.09956888,5.590543 5.03859577,5.6578332 C4.97762266,5.72512341 4.92773558,5.79423227 4.88523917,5.86515978 C4.75774995,6.08157963 4.69677684,6.27253832 4.70231985,6.43803585 C4.70601519,6.60353339 4.77807432,6.72720187 4.9203449,6.80722266 C5.00718538,6.85632632 5.09402587,6.87815017 5.18271402,6.87087555 C5.26955451,6.86723824 5.35639499,6.83995843 5.44138781,6.79085477 C5.52638062,6.74538841 5.60952576,6.67627955 5.6871279,6.58898415 C5.7665777,6.4998701 5.8404845,6.39802546 5.90884829,6.28163159 L6.87333196,6.82904651 C6.74399507,7.05092232 6.5887908,7.2382437 6.40587148,7.39282931 C6.22295217,7.54741491 6.02525149,7.66017147 5.81276945,7.73291764 C5.59843975,7.80566381 5.37487169,7.83112497 5.14206528,7.81111977 C4.90741121,7.79111458 4.6746048,7.7147311 4.44364607,7.583788 C4.21638267,7.45466355 4.03715869,7.30917121 3.90227879,7.14731099 C3.76370355,6.98545077 3.67132006,6.81267862 3.62328064,6.62717589 C3.57339355,6.44167316 3.57154588,6.24707716 3.61219462,6.04156924 C3.65284336,5.83606131 3.73414083,5.62509743 3.85978239,5.41231489 C3.95586122,5.24863601 4.07041675,5.10314367 4.20344898,4.97401923 C4.33463355,4.84671343 4.48614248,4.73031956 4.65612811,4.62483762 C4.82426606,4.51935568 5.01272839,4.4193297 5.21966742,4.33021564 C5.42475878,4.24110158 5.6501745,4.15380618 5.89406693,4.06651078 L7.05255594,3.53546376 L5.37117635,2.5806703 L5.83309382,1.79501169 Z" id="路径" fill="#FFFFFF" fill-rule="nonzero"></path>
                                    <polygon id="路径" fill="#FFFFFF" fill-rule="nonzero" points="3.11147608 0.247336971 4.07595976 0.796570538 1.8957093 4.51389971 3.04680764 4.69030917 2.58489017 5.47960509 0.354752618 5.17952715 0.253130774 5.12314887"></polygon>
                                    <path d="M5.92547731,1.63678878 L5.76473003,1.54585607 L5.67234654,1.70407898 L5.21227674,2.48973759 L5.11989325,2.64614186 L5.27879286,2.73707456 L6.65345925,3.51727721 L5.82385547,3.8991946 C5.57996305,3.98649 5.35269965,4.0737854 5.14576062,4.16289945 L5.14576062,4.16289945 L5.14391295,4.16289945 C4.92958325,4.25746947 4.73373024,4.35931411 4.5582016,4.47207067 C4.37712995,4.58300857 4.21638267,4.70667706 4.07411209,4.84307612 L4.07411209,4.84489478 C3.92814617,4.98493115 3.80435229,5.14497272 3.70088278,5.32138218 C3.56600287,5.54871395 3.47546705,5.77786438 3.43112297,6.00701481 C3.38493123,6.23616524 3.38862657,6.45804105 3.44405666,6.67264224 C3.49948676,6.88542479 3.60665161,7.08365809 3.76000821,7.26370486 C3.91151714,7.44557028 4.10921782,7.60379319 4.35126257,7.74019226 C4.60254568,7.88386594 4.86121946,7.96934269 5.12543626,7.99298519 L5.12543626,7.99298519 L5.12728393,7.99298519 C5.38411004,8.01480904 5.63354547,7.98571057 5.87189489,7.90568979 L5.87189489,7.90568979 L5.87374256,7.90568979 C6.10839663,7.82385035 6.32642168,7.70018187 6.52597003,7.53286568 L6.52597003,7.53286568 L6.5278177,7.53104703 C6.72551837,7.36191218 6.89365633,7.15640426 7.03407924,6.91997922 L7.12646274,6.76357495 L6.96571546,6.67264224 L6.00123178,6.12340868 L5.8404845,6.03247597 L5.74810101,6.19069888 C5.68528023,6.29799948 5.61876411,6.38893219 5.54855266,6.46895297 C5.48018887,6.54533645 5.41367276,6.59807742 5.35085198,6.63263185 L5.35085198,6.63263185 L5.34900431,6.63445051 C5.28433587,6.67082359 5.2270581,6.68719148 5.17347567,6.68901013 L5.17347567,6.68901013 L5.16793266,6.69082879 C5.12174092,6.69264744 5.07185383,6.68355417 5.01272839,6.65081839 C4.92773558,6.60171473 4.88893451,6.53806183 4.88708684,6.4362172 L4.88708684,6.4362172 L4.88708684,6.43257989 C4.8833915,6.31254871 4.92773558,6.15614445 5.04598645,5.95609249 C5.08109218,5.8960769 5.12358859,5.83606131 5.17717101,5.77786438 C5.2270581,5.72330475 5.29357421,5.66328917 5.37671936,5.60145492 C5.4598645,5.53962068 5.55963868,5.47596778 5.68158489,5.40685892 C5.79983576,5.34320603 5.94025867,5.27409717 6.10654896,5.201351 L8.423527,4.28838659 L8.48265243,4.26474409 L8.51406282,4.21018446 L8.90761651,3.54091972 L9,3.38451546 L8.83925272,3.29358275 L5.92547731,1.63678878 Z M3.20385958,0.0909327098 L3.04495997,0 L2.95257647,0.156404261 L0.0923834941,5.03221616 L0,5.18862042 L0.16074728,5.27955313 L0.262369123,5.33775006 L0.293779511,5.35593661 L0.330732909,5.36139257 L2.55902279,5.65965186 L2.68281667,5.67601975 L2.74378978,5.5705378 L3.20755492,4.78124188 L3.34243482,4.55209145 L3.07452269,4.51026241 L2.19133648,4.375682 L4.23670704,0.887503248 L4.32909054,0.729280333 L4.16834326,0.638347623 L3.20385958,0.0909327098 Z" id="形状" stroke-opacity="0.6" stroke="#000000" stroke-width="0.2"></path>
                                </g>
                                <g id="编组" opacity="0.8" transform="translate(74.000000, 91.000000)">
                                    <polygon id="路径" fill="#FFFFFF" fill-rule="nonzero" points="4.14323378 0.867326733 5.17047526 0.271287129 7.49259201 4.31881188 8.27187865 3.34653465 8.76385253 4.20594059 7.29580245 6.11089109 7.1875682 6.17425743"></polygon>
                                    <path d="M4.03893532,4.4019802 L5.32397111,7.24752475 L2.77357848,8.72871287 L2.26782932,7.84752475 L3.97989845,6.85346535 L3.42298401,5.66336634 C3.40330506,5.6990099 3.3816582,5.74059406 3.35213977,5.78613861 C3.32655713,5.83564356 3.29113501,5.88316832 3.2498092,5.93465347 C3.2084834,5.98613861 3.1612539,6.03564356 3.10812072,6.08316832 C3.05498754,6.13465347 2.99398278,6.18019802 2.92510644,6.21980198 C2.70667003,6.34653465 2.48823362,6.41980198 2.27373301,6.43762376 C2.05923239,6.45544554 1.85063547,6.42178218 1.64991012,6.33465347 C1.44721688,6.24752475 1.25239522,6.11089109 1.06938093,5.92475248 C0.882430856,5.73861386 0.707288152,5.5049505 0.545920717,5.22376238 C0.410135924,4.98811881 0.313709042,4.74455446 0.25270428,4.4950495 C0.193667413,4.24554455 0.18186004,4.0019802 0.215314264,3.76435644 C0.250736384,3.52871287 0.335355893,3.3049505 0.473108581,3.0970297 C0.61086127,2.88712871 0.80961872,2.70693069 1.06938093,2.55643564 C1.26420259,2.44158416 1.47476742,2.36633663 1.69517172,2.32673267 C1.91951181,2.29108911 2.14188401,2.2990099 2.3642562,2.34653465 C2.58269261,2.3980198 2.78932164,2.4950495 2.9861112,2.63564356 C3.18290075,2.77623762 3.35410767,2.97029703 3.49579615,3.21386139 L2.48429783,3.8019802 C2.34064146,3.59009901 2.18714561,3.45148515 2.02577817,3.38217822 C1.86441074,3.31485149 1.71288278,3.32277228 1.56725851,3.40594059 C1.47083163,3.46336634 1.40392318,3.53663366 1.36653316,3.62574257 C1.32717525,3.71683168 1.31339998,3.81782178 1.32127156,3.92871287 C1.32914315,4.04158416 1.35669368,4.16237624 1.40982686,4.29108911 C1.45705636,4.41980198 1.52199691,4.55445545 1.60071273,4.69306931 C1.68139645,4.83168317 1.76601596,4.95049505 1.85457126,5.04950495 C1.94509445,5.15049505 2.03758554,5.22574257 2.13794822,5.27524752 C2.2343751,5.32475248 2.33473777,5.34851485 2.43903624,5.34653465 C2.5433347,5.34851485 2.64960106,5.31683168 2.75783531,5.25346535 C2.83064745,5.21188119 2.88968432,5.16633663 2.93494591,5.11683168 C2.97823962,5.06930693 3.01169384,5.01980198 3.03727648,4.97029703 C3.06089123,4.92079208 3.07663439,4.86930693 3.08450598,4.81584158 C3.09434545,4.76435644 3.10024914,4.71485149 3.10418493,4.66336634 L4.03893532,4.4019802 Z" id="路径" fill="#FFFFFF" fill-rule="nonzero"></path>
                                    <path d="M4.044839,0.695049505 L3.87363209,0.794059406 L3.97202687,0.966336634 L7.01832918,6.27326733 L7.11672396,6.44554455 L7.28596298,6.34653465 L7.39419723,6.28316832 L7.42765146,6.26336634 L7.4512662,6.23366337 L8.91931628,4.32673267 L9,4.22178218 L8.93505945,4.10693069 L8.44111766,3.24752475 L8.29746129,2.9980198 L8.11838279,3.22178218 L7.52014255,3.96831683 L5.33971428,0.172277228 L5.2413195,0 L5.07208048,0.099009901 L4.044839,0.695049505 Z M4.21801381,4.32079208 L4.14913747,4.16633663 L3.98580214,4.21188119 L3.05105175,4.47326733 L2.91723485,4.51089109 L2.90739538,4.65148515 C2.90542748,4.69306931 2.89952379,4.73663366 2.89165221,4.78019802 L2.89165221,4.78019802 L2.88968432,4.78613861 C2.88574853,4.81980198 2.87590905,4.85148515 2.86213378,4.88118812 C2.84442272,4.91287129 2.82277587,4.94653465 2.78932164,4.98217822 C2.75980321,5.01386139 2.7184774,5.04752475 2.65944054,5.08316832 C2.57482103,5.13069307 2.50397679,5.14851485 2.44100413,5.14851485 L2.44100413,5.14851485 L2.43510044,5.14851485 C2.3642562,5.15049505 2.29734776,5.13465347 2.22847141,5.0990099 L2.22847141,5.0990099 L2.22453562,5.0970297 C2.15172349,5.06138614 2.07694345,5.0039604 2.00019553,4.91683168 C1.92147971,4.82970297 1.84473178,4.72277228 1.77191964,4.59405941 C1.69713961,4.46336634 1.63810275,4.33861386 1.59284115,4.21980198 L1.59284115,4.21980198 L1.59087325,4.21584158 C1.54561166,4.1029703 1.5239648,4.0039604 1.51806112,3.91683168 L1.51806112,3.91683168 L1.51806112,3.91089109 C1.51018954,3.82772277 1.52199691,3.76039604 1.54561166,3.7029703 C1.56529061,3.65940594 1.60071273,3.61584158 1.66565328,3.57821782 C1.75420858,3.52673267 1.84276388,3.52079208 1.95099814,3.56633663 C2.06513608,3.61386139 2.1910814,3.72079208 2.3209625,3.91287129 L2.42526097,4.06534653 L2.58269261,3.97227723 L3.59419092,3.38415842 L3.76736573,3.28514851 L3.66700306,3.11287129 C3.51153931,2.84950495 3.32458923,2.63366337 3.10221704,2.47524752 C2.88574853,2.31881188 2.65353685,2.21188119 2.40754991,2.15445545 L2.40558201,2.15445545 C2.16156296,2.0990099 1.91360812,2.09108911 1.66565328,2.13267327 L1.66565328,2.13267327 L1.66171749,2.13267327 C1.41769845,2.17425743 1.18745467,2.25940594 0.970986155,2.38415842 C0.689577092,2.54851485 0.465236999,2.74851485 0.30977325,2.98613861 C0.156277398,3.21980198 0.0598505156,3.46930693 0.0204926046,3.73663366 C-0.0168974108,4 -0.00312214198,4.26930693 0.0618184112,4.54257426 C0.126758964,4.81188119 0.231057428,5.07128713 0.374713804,5.32277228 C0.543952821,5.61584158 0.726967107,5.86336634 0.929660349,6.06534653 C1.1284178,6.26732673 1.34291841,6.41782178 1.57316219,6.51683168 C1.80340597,6.61584158 2.04348923,6.65544554 2.29144407,6.63564356 C2.53939891,6.61386139 2.78341796,6.53069307 3.02350121,6.39009901 C3.10221704,6.34455446 3.17502917,6.29108911 3.23996972,6.22970297 C3.2970387,6.18019802 3.34820398,6.12673267 3.39346558,6.06930693 L3.72407203,6.77425743 L2.16943455,7.67722772 L2.00019553,7.77623762 L2.09859031,7.94653465 L2.60433946,8.82772277 L2.70273424,9 L2.87197326,8.9009901 L5.42236589,7.41980198 L5.57782964,7.32871287 L5.50304961,7.16633663 L4.21801381,4.32079208 Z" id="形状" stroke-opacity="0.6" stroke="#000000" stroke-width="0.2"></path>
                                </g>
                                <g id="编组" opacity="0.8" transform="translate(90.270920, 29.280264)" fill="#FFFFFF" fill-rule="nonzero">
                                    <path d="M8.36130383,1.96089067 L7.17414528,2.6813558 L7.13358177,2.61154328 C6.97673622,2.32950073 6.79555257,2.10610069 6.59003082,1.93575816 C6.3872133,1.76541563 6.16546614,1.64813061 5.92208512,1.5839031 C5.68411256,1.52246809 5.42721036,1.51129809 5.15137854,1.5448081 C4.88095517,1.5811106 4.59701064,1.66767812 4.29954495,1.80171814 C4.54022174,1.84919065 4.75656043,1.94413567 4.95667372,2.08376069 C5.156787,2.22338571 5.32715372,2.41327575 5.4623654,2.65622329 C5.62732365,2.95502084 5.70845066,3.2538184 5.70033796,3.55820095 C5.69492949,3.8569985 5.62191518,4.15021105 5.48129504,4.4322536 C5.34337912,4.71708865 5.1486743,4.9879612 4.89177211,5.23928625 C4.63757415,5.49619629 4.34281268,5.72518133 4.01019195,5.92624137 C3.65864158,6.1384714 3.30438698,6.28647393 2.94472391,6.36745645 C2.58506084,6.44843896 2.2443274,6.45960896 1.91711513,6.40655145 C1.5926071,6.35349394 1.28973293,6.23062392 1.00849264,6.03794139 C0.73266081,5.84246635 0.502800953,5.57997131 0.316208834,5.24766375 C0.124208247,4.90418619 0.0187431364,4.54953862 0.00251773474,4.18930606 C-0.0137076669,3.826281 0.0484897062,3.47163343 0.189109854,3.12536337 C0.335138469,2.77630081 0.554181392,2.44120075 0.846238622,2.1200632 C1.14370432,1.80171814 1.50336739,1.51409059 1.92793207,1.25718054 L2.48229996,0.919287985 C3.06641442,0.564640423 3.63971195,0.310522878 4.20489677,0.159727851 C4.7700816,0.00893282466 5.30281562,-0.0357471832 5.80309884,0.0284803281 C6.30608629,0.0927078394 6.76851024,0.26863537 7.18496221,0.556262921 C7.60411842,0.841097971 7.96107726,1.24601054 8.25043026,1.76541563 L8.36130383,1.96089067 Z M4.05075545,2.90754834 C3.94799458,2.7232433 3.8046702,2.60316578 3.62348654,2.54452327 C3.44230289,2.48867326 3.2503023,2.48029576 3.05289325,2.51939077 L2.54720157,2.82656582 C2.03880565,3.13374088 1.70077644,3.43533093 1.52770549,3.72854348 C1.35463454,4.02175603 1.33300067,4.28145858 1.46280389,4.51044362 C1.52770549,4.62772864 1.6169452,4.71429615 1.73322725,4.77293866 C1.85221353,4.82878867 1.98742521,4.85392118 2.14156652,4.84833618 C2.29300361,4.84554368 2.46066609,4.81482617 2.63644127,4.75339116 C2.81762493,4.69474865 2.99880858,4.60818114 3.18810493,4.49368861 C3.38010552,4.37640359 3.54235954,4.25074107 3.68027545,4.11670105 C3.8208956,3.98266102 3.92906494,3.843036 4.00478348,3.70061848 C4.08050202,3.56099345 4.12376976,3.42416093 4.13188246,3.2873284 C4.1426994,3.15049588 4.11565706,3.02483336 4.05075545,2.90754834 Z" id="形状"></path>
                                </g>
                            </g>
                            <g id="Clipped" transform="translate(17.982759, 17.931034)">
                                <mask id="mask-2" fill="white">
                                    <use xlink:href="#path-1"></use>
                                </mask>
                                <use id="路径" stroke="#979797" stroke-width="0.3" xlink:href="#path-1"></use>
                            </g>
                        </g>
                    </g>
                </g>
            </g>
        </g>
    </g>
</svg>