<?xml version="1.0" encoding="UTF-8"?>
<svg width="44px" height="44px" viewBox="0 0 44 44" version="1.1" xmlns="http://www.w3.org/2000/svg" xmlns:xlink="http://www.w3.org/1999/xlink">
    <title>编组 22备份</title>
    <defs>
        <circle id="path-1" cx="20" cy="18" r="18"></circle>
        <filter x="-16.7%" y="-16.7%" width="133.3%" height="133.3%" filterUnits="objectBoundingBox" id="filter-2">
            <feOffset dx="0" dy="0" in="SourceAlpha" result="shadowOffsetOuter1"></feOffset>
            <feGaussianBlur stdDeviation="2" in="shadowOffsetOuter1" result="shadowBlurOuter1"></feGaussianBlur>
            <feColorMatrix values="0 0 0 0 0   0 0 0 0 0   0 0 0 0 0  0 0 0 0.5 0" type="matrix" in="shadowBlurOuter1"></feColorMatrix>
        </filter>
        <path d="M14.7166612,10.350673 L14.9287111,10.3656833 L14.9287111,10.3656833 L15.3540349,10.3879366 C15.6371832,10.4061672 15.9182701,10.4403175 16.1897369,10.5451649 C16.259708,10.5708525 16.3296791,10.5892008 16.4033329,10.6075491 C16.8305248,10.7176388 17.2613995,10.8093802 17.6775434,10.9414879 C17.9795239,11.036899 18.2667737,11.1800157 18.5577061,11.3047841 C18.8044463,11.4112041 19.0585519,11.5029456 19.2905613,11.6387229 C19.7103878,11.8882596 20.1302144,12.141466 20.5168968,12.4350387 C20.9772329,12.7836562 21.3786461,13.2019972 21.6585305,13.7157493 C22.0120686,14.3652787 22.1188666,15.0368261 21.8463476,15.756079 C21.5149056,16.6331273 20.8888484,17.2532995 20.1375798,17.7597122 C19.7251186,18.0386063 19.2795132,18.277134 18.8302251,18.4936438 C18.3514755,18.7248323 17.8579951,18.9303331 17.3571494,19.102807 C16.9299575,19.2495933 16.484352,19.3486741 16.046112,19.4477549 C15.5857759,19.5505053 15.121757,19.6422467 14.6577382,19.7083006 C14.0022195,19.800042 13.3467008,19.8881138 12.6874994,19.9358194 C11.1591834,20.0422395 9.63086737,20.0202215 8.10991669,19.8404083 C7.27762891,19.7449972 6.44902383,19.5835322 5.63514951,19.3853707 C5.01277502,19.2349147 4.40881399,19.0000566 3.81221833,18.7725378 C3.38134369,18.6074032 2.95415175,18.416581 2.54905594,18.1927319 C1.65047975,17.6936584 0.836605434,17.0808255 0.332076992,16.1597414 C0.00431765627,15.5579175 -0.109845718,14.9193971 0.122163705,14.233171 C0.350490431,13.5506147 0.777682399,13.0185143 1.32640309,12.581825 C1.7314989,12.2588951 2.16973894,11.9800011 2.60797895,11.7047767 C2.83998837,11.5616601 3.105142,11.4699186 3.35556488,11.3634986 C3.66491078,11.2313909 3.97425668,11.0992832 4.28728525,10.9855238 C4.56716964,10.8827734 4.8507367,10.7836926 5.14166916,10.7139691 C5.61673607,10.5965401 6.09548568,10.4974593 6.57791797,10.4093875 C6.77310049,10.3726909 6.98301378,10.3763606 7.181879,10.3910392 C7.25921547,10.3983786 7.33286925,10.4864503 7.40652305,10.5378255 C7.35496541,10.6038794 7.31445581,10.6919512 7.24816741,10.7359871 C7.15610017,10.7910319 7.04193682,10.8167196 6.93513883,10.8424072 C6.54845646,10.9378183 6.15809139,11.0148811 5.77877439,11.1323101 C5.39945739,11.2497392 5.03118848,11.4001952 4.66660225,11.5506511 C4.42354476,11.6497319 4.18048727,11.756152 3.95584322,11.8882597 C3.09777663,12.3946724 2.32809456,12.989157 2.04084482,14.0093219 C1.96350835,14.2882159 1.97823911,14.5634402 2.05557556,14.8423342 C2.21761388,15.4221402 2.56746938,15.8771778 3.00939209,16.2698312 C3.49550707,16.6991811 4.03317969,17.044129 4.63714074,17.2789871 C5.19322683,17.4954969 5.74931289,17.7266853 6.32381241,17.8954896 C6.80992739,18.0422759 7.31445581,18.1303477 7.81530156,18.2147498 C8.8611853,18.3872237 9.91443443,18.5046528 11.0192412,18.4496079 C12.1424614,18.5266708 13.2877778,18.3541968 14.4257288,18.1817229 C14.9376226,18.1046601 15.4384683,17.9431952 15.9393141,17.8037481 C16.2928522,17.7046674 16.6463904,17.6019169 16.9851978,17.4588003 C17.9463797,17.0588076 18.8486385,16.5560645 19.5115226,15.7193825 C19.7656282,15.3964526 19.9350319,15.0258171 19.9939549,14.6258244 C20.0860222,14.0129916 19.8319166,13.5029091 19.4636477,13.0368626 C19.1506191,12.6368698 18.7418406,12.3506365 18.3183313,12.0754122 C17.7475145,11.6974374 17.1140919,11.4515704 16.4806694,11.2167123 C16.0829389,11.0662563 15.655747,10.9891935 15.2432858,10.8791037 L14.851284,10.7790716 C14.7862231,10.7608592 14.7215715,10.7408799 14.6577382,10.7176388 C14.5877671,10.6919512 14.5398921,10.6002097 14.4809691,10.5378255 C14.5619883,10.4717717 14.6466901,10.3433337 14.7166612,10.350673 Z M14.5392815,11.8749711 C14.7649268,11.8786756 14.9180433,11.9972216 14.9744547,12.2009724 C15.0872773,12.6084742 15.1880118,13.0159759 15.3048639,13.4197731 C15.4378335,13.8828433 15.5788618,14.3459134 15.7198902,14.8089836 C15.8125659,15.1238713 15.9213592,15.4350544 15.9979175,15.7499421 C16.014035,15.8092151 15.9334473,15.9129428 15.8649479,15.9573975 C15.8004778,15.9981477 15.6957139,15.987034 15.6110969,15.9907386 C14.946249,15.9944432 14.2814011,15.9981477 13.6165532,15.9981477 C13.2942027,15.9981477 13.2136151,15.9203519 13.201527,15.623987 C13.1854094,15.1794397 13.1652625,14.7348923 13.1451156,14.290345 C13.1330275,14.0495485 13.0443811,13.9717527 12.7824713,13.9717527 C11.6623034,13.9680482 10.5421354,13.9680482 9.41793806,13.9717527 C9.14796951,13.9717527 9.03514686,14.0606622 9.00291179,14.3051632 C8.94650047,14.7571197 8.8941185,15.2127807 8.84576593,15.6684418 C8.82158964,15.9055337 8.74906078,15.9944432 8.48312163,15.9944432 C7.74574488,16.0018523 7.00433874,16.0018523 6.26696199,15.9944432 C6.00505222,15.9907386 5.95267026,15.8758972 6.03728726,15.649919 C6.17831559,15.2572355 6.30322642,14.8608474 6.42007849,14.4644594 C6.63363568,13.7309563 6.83107536,12.9974531 7.0365738,12.26395 C7.11313205,11.9861079 7.27833667,11.8712665 7.58456962,11.8712665 L8.79338397,11.8712665 C9.09961694,11.8712665 9.18826331,11.9490623 9.17617519,12.2380181 C9.16811644,12.415837 9.13991076,12.5936559 9.12782262,12.7714749 C9.11170508,13.0419079 9.20438087,13.1308173 9.49449629,13.1308173 L11.0256611,13.1308173 L11.0256611,13.1530447 L12.5769729,13.1530447 C12.9194703,13.1530447 13.0242342,13.049317 13.0000579,12.7344293 C12.9879697,12.5566103 12.9597641,12.3787914 12.9557347,12.2009724 C12.9517053,11.9749942 13.0322929,11.8860847 13.2700264,11.8786756 C13.6931114,11.8675619 14.1161965,11.8638574 14.5392815,11.8749711 Z M9.75640608,9.97453116 C10.2076968,9.97823572 10.6509287,9.97823572 11.0901312,9.9782357 L12.5971198,9.9782357 C12.8348533,9.9782357 12.895294,10.0375087 12.8872352,10.2523732 C12.8832058,10.356101 12.8832058,10.4635332 12.8791764,10.5672609 C12.8711177,10.7932392 12.7744125,10.8895578 12.5286203,10.9154897 C12.4762383,10.9191943 12.419827,10.9191943 12.3674451,10.9191943 L9.75237669,10.9191943 C9.36152671,10.9191943 9.23661591,10.8043529 9.23661591,10.4450104 C9.23661591,9.97453116 9.23661591,9.97453116 9.75640608,9.97453116 Z M12.5850316,8 C12.8388827,8 12.895294,8.05556842 12.8912646,8.28154666 C12.8872352,8.53345682 12.8912646,8.785367 12.8832058,9.04098172 C12.8791764,9.25584628 12.8066476,9.30771013 12.5729435,9.30771013 L9.59523082,9.30771013 C9.30108599,9.30771013 9.24064527,9.25584628 9.24064527,8.9854133 L9.23661591,8.26302386 L9.23661591,8.26302386 C9.23661591,8.05556844 9.29302724,8.00370457 9.52673135,8 L10.3038982,8.00138921 L10.3038982,8.00138921 L11.0780431,8 L11.0780431,8 L12.5850316,8 Z M11.14077,0.031595061 C11.3948755,0.350855296 11.6452984,0.673785196 11.8883559,1.00405438 C12.5254611,1.86275433 13.1588837,2.72512393 13.7959889,3.58382388 L14.7976804,4.9415973 L14.7976804,4.9415973 C14.8271419,4.98196353 14.849238,5.02599942 14.8676515,5.07003532 C14.9634014,5.30122376 14.8639688,5.4626887 14.6135459,5.46635837 C14.1053348,5.47369768 13.593441,5.47002803 13.0852299,5.47002803 C12.7390571,5.47002803 12.7059129,5.50305495 12.7059129,5.84800278 C12.7059129,6.3507459 12.7095956,6.84981938 12.7132783,7.35256252 C12.7132783,7.56907233 12.6617206,7.6241172 12.4444419,7.62778686 C11.9804231,7.62778686 11.5164043,7.6241172 11.0487027,7.6241172 L9.66769424,7.6241172 C9.42831945,7.6241172 9.38044448,7.56907233 9.38044448,7.33054458 C9.38412718,6.82413179 9.38412718,6.31404934 9.38412718,5.80763655 C9.38412718,5.5067246 9.33993491,5.47002803 9.04531977,5.47002803 C8.54079135,5.4736977 8.03994561,5.48103701 7.53541717,5.46635837 C7.43230186,5.4626887 7.26289817,5.40764383 7.24448473,5.34525966 C7.21134053,5.23516992 7.23711936,5.07003532 7.30340774,4.97829386 C8.03258022,3.9728076 8.77648345,2.97833033 9.5130213,1.98018339 C9.93284787,1.40771676 10.3489917,0.835250136 10.7688183,0.262783507 C10.8351068,0.174711718 10.8977125,0.0829702641 10.9787316,0.0132467573 C11.0081931,-0.012440855 11.1149911,0.00223778369 11.14077,0.031595061 Z" id="path-3"></path>
    </defs>
    <g id="航线规划" stroke="none" stroke-width="1" fill="none" fill-rule="evenodd">
        <g id="编组-22备份" transform="translate(2.000000, 4.000000)">
            <g id="椭圆形">
                <use fill="black" fill-opacity="1" filter="url(#filter-2)" xlink:href="#path-1"></use>
                <use fill="#2D8CF0" fill-rule="evenodd" xlink:href="#path-1"></use>
            </g>
            <g id="编组" transform="translate(8.000000, 5.623889)">
                <g id="编组" transform="translate(1.000000, 2.000000)">
                    <mask id="mask-4" fill="white">
                        <use xlink:href="#path-3"></use>
                    </mask>
                    <use id="形状结合" fill="#000000" fill-rule="nonzero" xlink:href="#path-3"></use>
                    <g mask="url(#mask-4)" id="1颜色/ic色/nor">
                        <g transform="translate(-22.000000, -26.000000)">
                            <rect id="矩形" fill="#FFFFFF" x="0" y="0" width="68" height="68"></rect>
                        </g>
                    </g>
                </g>
            </g>
        </g>
    </g>
</svg>