{
    "asset": {
        "version": "2.0",
        "generator": "Created using the official Cinema 4D glTF Exporter 1.000x290161"
    },
    "scenes": [
        {
            "nodes": [0]
        }
    ],
    "nodes": [
        {
            "name": "角锥",
            "translation": [0.3352470397949219, 25.15613555908203, -20.01490020751953],
            "rotation": [0.0, 0.0, 0.0, -1.0],
            "scale": [1.0, 1.0, 1.0],
            "mesh": 0
        }
    ],
    "meshes": [
        {
            "primitives": [
                {
                    "attributes": {
                        "POSITION": 1,
                        "NORMAL": 2,
                        "TEXCOORD_0": 3
                    },
                    "indices": 0,
                    "material": 0
                }
            ]
        }
    ],
    "accessors": [
        {
            "bufferView": 0,
            "type": "SCALAR",
            "componentType": 5123,
            "count": 18,
            "byteOffset": 0,
            "min": [0],
            "max": [14]
        },
        {
            "bufferView": 1,
            "type": "VEC3",
            "componentType": 5126,
            "count": 15,
            "byteOffset": 0,
            "min": [-81.83937072753906, -24.118911743164064, -122.53469848632813],
            "max": [81.83937072753906, 24.118911743164064, 122.53469848632813]
        },
        {
            "bufferView": 1,
            "type": "VEC3",
            "componentType": 5126,
            "count": 15,
            "byteOffset": 12,
            "min": [-0.5999375581741333, -1.0, -0.20496876537799836],
            "max": [0.6073125004768372, 0.7750312685966492, 0.8280937671661377]
        },
        {
            "bufferView": 1,
            "type": "VEC2",
            "componentType": 5126,
            "count": 15,
            "byteOffset": 24,
            "min": [0.0, 0.0],
            "max": [1.0, 1.0]
        }
    ],
    "bufferViews": [
        {
            "buffer": 0,
            "byteOffset": 0,
            "byteLength": 36,
            "target": 34963
        },
        {
            "buffer": 0,
            "byteOffset": 36,
            "byteLength": 480,
            "target": 34962,
            "byteStride": 32
        }
    ],
    "buffers": [
        {
            "uri": "data:application/octet-stream;base64,",
            "byteLength": 516
        }
    ],
    "images": [
        {
            "uri": "data:image/jpeg;base64,"
        }
    ],
    "samplers": [
        {
            "magFilter": 9729,
            "minFilter": 9729,
            "wrapS": 10497,
            "wrapT": 10497
        }
    ],
    "textures": [
        {
            "sampler": 0,
            "source": 0
        }
    ],
    "materials": [
        {
            "pbrMetallicRoughness": {
                "baseColorTexture": {
                    "index": 0
                },
                "baseColorFactor": [1.0, 1.0, 1.0, 1.0],
                "metallicFactor": 1.0,
                "roughnessFactor": 1.0
            },
            "emissiveFactor": [0.0, 0.0, 0.0],
            "alphaMode": "OPAQUE",
            "doubleSided": false,
            "name": "default"
        }
    ]
}
